<?xml version="1.0" encoding="UTF-8" standalone="no"?>
<!DOCTYPE svg PUBLIC "-//W3C//DTD SVG 1.1//EN" "http://www.w3.org/Graphics/SVG/1.1/DTD/svg11.dtd">
<svg width="100%" height="100%" viewBox="0 0 1024 768" version="1.1" xmlns="http://www.w3.org/2000/svg" xmlns:xlink="http://www.w3.org/1999/xlink" xml:space="preserve" xmlns:serif="http://www.serif.com/" style="fill-rule:evenodd;clip-rule:evenodd;stroke-linecap:round;stroke-linejoin:round;stroke-miterlimit:1.5;">
    <g transform="matrix(1.03122,0,0,1.05785,-22.6868,-29.6198)">
        <rect x="22" y="28" width="993" height="726" style="fill:rgb(39,46,249);"/>
    </g>
    <g>
        <g transform="matrix(1.30719,0,0,1.65729,36.6013,-38.1177)">
            <path d="M278,38C278,29.721 269.43,23 258.875,23C258.875,23 212.749,24.8 193.624,24.8C177.113,24.8 144.125,23 144.125,23C133.57,23 125,29.721 125,38C125,38 128.06,43.874 128.06,47.062C128.06,52.062 125,68 125,68C125,76.279 136.281,81.2 144.125,83C151.969,84.8 163.294,78.857 172.061,78.8C180.383,78.746 188.594,81.957 196.728,82.657C204.744,83.347 220.865,83 220.865,83L258.875,83C269.43,83 278,76.279 278,68C278,68 274.94,58.551 274.94,53.664C274.94,48.664 278,38 278,38Z" style="fill:rgb(242,224,52);stroke:black;stroke-width:0.22px;"/>
        </g>
        <g transform="matrix(1.30719,0,0,1.65729,336.601,-38.1177)">
            <path d="M278,38C278,29.721 269.43,23 258.875,23C258.875,23 212.749,24.8 193.624,24.8C177.113,24.8 144.125,23 144.125,23C133.57,23 125,29.721 125,38C125,38 128.06,43.874 128.06,47.062C128.06,52.062 125,68 125,68C125,76.279 136.281,81.2 144.125,83C151.969,84.8 163.294,78.857 172.061,78.8C180.383,78.746 188.594,81.957 196.728,82.657C204.744,83.347 220.865,83 220.865,83L258.875,83C269.43,83 278,76.279 278,68C278,68 274.94,58.551 274.94,53.664C274.94,48.664 278,38 278,38Z" style="fill:rgb(242,224,52);stroke:black;stroke-width:0.22px;"/>
        </g>
        <g transform="matrix(1.30719,0,0,1.65729,336.601,161.882)">
            <path d="M278,38C278,29.721 269.43,23 258.875,23C258.875,23 212.749,24.8 193.624,24.8C177.113,24.8 144.125,23 144.125,23C133.57,23 125,29.721 125,38C125,38 128.06,43.874 128.06,47.062C128.06,52.062 125,68 125,68C125,76.279 136.281,81.2 144.125,83C151.969,84.8 163.294,78.857 172.061,78.8C180.383,78.746 188.594,81.957 196.728,82.657C204.744,83.347 220.865,83 220.865,83L258.875,83C269.43,83 278,76.279 278,68C278,68 274.94,58.551 274.94,53.664C274.94,48.664 278,38 278,38Z" style="fill:rgb(242,224,52);stroke:black;stroke-width:0.22px;"/>
        </g>
        <g transform="matrix(1.30719,0,0,1.65729,436.601,361.882)">
            <path d="M278,38C278,29.721 269.43,23 258.875,23C258.875,23 212.749,24.8 193.624,24.8C177.113,24.8 144.125,23 144.125,23C133.57,23 125,29.721 125,38C125,38 128.06,43.874 128.06,47.062C128.06,52.062 125,68 125,68C125,76.279 136.281,81.2 144.125,83C151.969,84.8 163.294,78.857 172.061,78.8C180.383,78.746 188.594,81.957 196.728,82.657C204.744,83.347 220.865,83 220.865,83L258.875,83C269.43,83 278,76.279 278,68C278,68 274.94,58.551 274.94,53.664C274.94,48.664 278,38 278,38Z" style="fill:rgb(242,224,52);stroke:black;stroke-width:0.22px;"/>
        </g>
        <g transform="matrix(1.30719,0,0,1.65729,536.601,561.882)">
            <path d="M278,38C278,29.721 269.43,23 258.875,23C258.875,23 212.749,24.8 193.624,24.8C177.113,24.8 144.125,23 144.125,23C133.57,23 125,29.721 125,38C125,38 128.06,43.874 128.06,47.062C128.06,52.062 125,68 125,68C125,76.279 136.281,81.2 144.125,83C151.969,84.8 163.294,78.857 172.061,78.8C180.383,78.746 188.594,81.957 196.728,82.657C204.744,83.347 220.865,83 220.865,83L258.875,83C269.43,83 278,76.279 278,68C278,68 274.94,58.551 274.94,53.664C274.94,48.664 278,38 278,38Z" style="fill:rgb(242,224,52);stroke:black;stroke-width:0.22px;"/>
        </g>
        <g transform="matrix(8.00423e-17,-1.30719,1.65729,1.0148e-16,161.882,763.399)">
            <path d="M278,38C278,29.721 269.43,23 258.875,23C258.875,23 212.749,24.8 193.624,24.8C177.113,24.8 144.125,23 144.125,23C133.57,23 125,29.721 125,38C125,38 128.06,43.874 128.06,47.062C128.06,52.062 125,68 125,68C125,76.279 136.281,81.2 144.125,83C151.969,84.8 163.294,78.857 172.061,78.8C180.383,78.746 188.594,81.957 196.728,82.657C204.744,83.347 220.865,83 220.865,83L258.875,83C269.43,83 278,76.279 278,68C278,68 274.94,58.551 274.94,53.664C274.94,48.664 278,38 278,38Z" style="fill:rgb(242,224,52);stroke:black;stroke-width:0.22px;"/>
        </g>
        <g transform="matrix(8.00423e-17,-1.30719,1.65729,1.0148e-16,761.882,463.399)">
            <path d="M278,38C278,29.721 269.43,23 258.875,23C258.875,23 212.749,24.8 193.624,24.8C177.113,24.8 144.125,23 144.125,23C133.57,23 125,29.721 125,38C125,38 128.06,43.874 128.06,47.062C128.06,52.062 125,68 125,68C125,76.279 136.281,81.2 144.125,83C151.969,84.8 163.294,78.857 172.061,78.8C180.383,78.746 188.594,81.957 196.728,82.657C204.744,83.347 220.865,83 220.865,83L258.875,83C269.43,83 278,76.279 278,68C278,68 274.94,58.551 274.94,53.664C274.94,48.664 278,38 278,38Z" style="fill:rgb(242,224,52);stroke:black;stroke-width:0.22px;"/>
        </g>
        <g transform="matrix(8.00423e-17,-1.30719,1.65729,1.0148e-16,361.882,763.399)">
            <path d="M278,38C278,29.721 269.43,23 258.875,23C258.875,23 212.749,24.8 193.624,24.8C177.113,24.8 144.125,23 144.125,23C133.57,23 125,29.721 125,38C125,38 128.06,43.874 128.06,47.062C128.06,52.062 125,68 125,68C125,76.279 136.281,81.2 144.125,83C151.969,84.8 163.294,78.857 172.061,78.8C180.383,78.746 188.594,81.957 196.728,82.657C204.744,83.347 220.865,83 220.865,83L258.875,83C269.43,83 278,76.279 278,68C278,68 274.94,58.551 274.94,53.664C274.94,48.664 278,38 278,38Z" style="fill:rgb(242,224,52);stroke:black;stroke-width:0.22px;"/>
        </g>
    </g>
    <g>
        <g transform="matrix(1,0,0,1,-0.25,0.5)">
            <g transform="matrix(1,0,0,1,72.5,-107.725)">
                <path d="M34.5,114C37.536,114 40,117.137 40,121C40,124.863 37.536,123 34.5,123C31.464,123 29,124.863 29,121C29,117.137 31.464,114 34.5,114Z" style="fill:rgb(29,188,24);stroke:black;stroke-width:0.33px;"/>
            </g>
            <g transform="matrix(1,0,0,1,159,-107.725)">
                <path d="M34.5,114C37.536,114 40,117.137 40,121C40,124.863 37.536,123 34.5,123C31.464,123 29,124.863 29,121C29,117.137 31.464,114 34.5,114Z" style="fill:rgb(29,188,24);stroke:black;stroke-width:0.33px;"/>
            </g>
            <g transform="matrix(1,0,0,1,72.5,-30.7246)">
                <path d="M34.5,114C37.536,114 40,117.137 40,121C40,124.863 37.536,123 34.5,123C31.464,123 29,124.863 29,121C29,117.137 31.464,114 34.5,114Z" style="fill:rgb(29,188,24);stroke:black;stroke-width:0.33px;"/>
            </g>
            <g transform="matrix(1,0,0,1,159,-30.7246)">
                <path d="M34.5,114C37.536,114 40,117.137 40,121C40,124.863 37.536,123 34.5,123C31.464,123 29,124.863 29,121C29,117.137 31.464,114 34.5,114Z" style="fill:rgb(29,188,24);stroke:black;stroke-width:0.33px;"/>
            </g>
        </g>
        <g transform="matrix(1,0,0,1,99.75,100.5)">
            <g transform="matrix(1,0,0,1,72.5,-107.725)">
                <path d="M34.5,114C37.536,114 40,117.137 40,121C40,124.863 37.536,123 34.5,123C31.464,123 29,124.863 29,121C29,117.137 31.464,114 34.5,114Z" style="fill:rgb(29,188,24);stroke:black;stroke-width:0.33px;"/>
            </g>
            <g transform="matrix(1,0,0,1,159,-107.725)">
                <path d="M34.5,114C37.536,114 40,117.137 40,121C40,124.863 37.536,123 34.5,123C31.464,123 29,124.863 29,121C29,117.137 31.464,114 34.5,114Z" style="fill:rgb(29,188,24);stroke:black;stroke-width:0.33px;"/>
            </g>
            <g transform="matrix(1,0,0,1,72.5,-30.7246)">
                <path d="M34.5,114C37.536,114 40,117.137 40,121C40,124.863 37.536,123 34.5,123C31.464,123 29,124.863 29,121C29,117.137 31.464,114 34.5,114Z" style="fill:rgb(29,188,24);stroke:black;stroke-width:0.33px;"/>
            </g>
            <g transform="matrix(1,0,0,1,159,-30.7246)">
                <path d="M34.5,114C37.536,114 40,117.137 40,121C40,124.863 37.536,123 34.5,123C31.464,123 29,124.863 29,121C29,117.137 31.464,114 34.5,114Z" style="fill:rgb(29,188,24);stroke:black;stroke-width:0.33px;"/>
            </g>
        </g>
        <g transform="matrix(1,0,0,1,199.75,100.5)">
            <g transform="matrix(1,0,0,1,72.5,-107.725)">
                <path d="M34.5,114C37.536,114 40,117.137 40,121C40,124.863 37.536,123 34.5,123C31.464,123 29,124.863 29,121C29,117.137 31.464,114 34.5,114Z" style="fill:rgb(29,188,24);stroke:black;stroke-width:0.33px;"/>
            </g>
            <g transform="matrix(1,0,0,1,159,-107.725)">
                <path d="M34.5,114C37.536,114 40,117.137 40,121C40,124.863 37.536,123 34.5,123C31.464,123 29,124.863 29,121C29,117.137 31.464,114 34.5,114Z" style="fill:rgb(29,188,24);stroke:black;stroke-width:0.33px;"/>
            </g>
            <g transform="matrix(1,0,0,1,72.5,-30.7246)">
                <path d="M34.5,114C37.536,114 40,117.137 40,121C40,124.863 37.536,123 34.5,123C31.464,123 29,124.863 29,121C29,117.137 31.464,114 34.5,114Z" style="fill:rgb(29,188,24);stroke:black;stroke-width:0.33px;"/>
            </g>
            <g transform="matrix(1,0,0,1,159,-30.7246)">
                <path d="M34.5,114C37.536,114 40,117.137 40,121C40,124.863 37.536,123 34.5,123C31.464,123 29,124.863 29,121C29,117.137 31.464,114 34.5,114Z" style="fill:rgb(29,188,24);stroke:black;stroke-width:0.33px;"/>
            </g>
        </g>
        <g transform="matrix(1,0,0,1,299.75,100.5)">
            <g transform="matrix(1,0,0,1,72.5,-107.725)">
                <path d="M34.5,114C37.536,114 40,117.137 40,121C40,124.863 37.536,123 34.5,123C31.464,123 29,124.863 29,121C29,117.137 31.464,114 34.5,114Z" style="fill:rgb(29,188,24);stroke:black;stroke-width:0.33px;"/>
            </g>
            <g transform="matrix(1,0,0,1,159,-107.725)">
                <path d="M34.5,114C37.536,114 40,117.137 40,121C40,124.863 37.536,123 34.5,123C31.464,123 29,124.863 29,121C29,117.137 31.464,114 34.5,114Z" style="fill:rgb(29,188,24);stroke:black;stroke-width:0.33px;"/>
            </g>
            <g transform="matrix(1,0,0,1,72.5,-30.7246)">
                <path d="M34.5,114C37.536,114 40,117.137 40,121C40,124.863 37.536,123 34.5,123C31.464,123 29,124.863 29,121C29,117.137 31.464,114 34.5,114Z" style="fill:rgb(29,188,24);stroke:black;stroke-width:0.33px;"/>
            </g>
            <g transform="matrix(1,0,0,1,159,-30.7246)">
                <path d="M34.5,114C37.536,114 40,117.137 40,121C40,124.863 37.536,123 34.5,123C31.464,123 29,124.863 29,121C29,117.137 31.464,114 34.5,114Z" style="fill:rgb(29,188,24);stroke:black;stroke-width:0.33px;"/>
            </g>
        </g>
        <g transform="matrix(1,0,0,1,399.75,100.5)">
            <g transform="matrix(1,0,0,1,72.5,-107.725)">
                <path d="M34.5,114C37.536,114 40,117.137 40,121C40,124.863 37.536,123 34.5,123C31.464,123 29,124.863 29,121C29,117.137 31.464,114 34.5,114Z" style="fill:rgb(29,188,24);stroke:black;stroke-width:0.33px;"/>
            </g>
            <g transform="matrix(1,0,0,1,159,-107.725)">
                <path d="M34.5,114C37.536,114 40,117.137 40,121C40,124.863 37.536,123 34.5,123C31.464,123 29,124.863 29,121C29,117.137 31.464,114 34.5,114Z" style="fill:rgb(29,188,24);stroke:black;stroke-width:0.33px;"/>
            </g>
            <g transform="matrix(1,0,0,1,72.5,-30.7246)">
                <path d="M34.5,114C37.536,114 40,117.137 40,121C40,124.863 37.536,123 34.5,123C31.464,123 29,124.863 29,121C29,117.137 31.464,114 34.5,114Z" style="fill:rgb(29,188,24);stroke:black;stroke-width:0.33px;"/>
            </g>
            <g transform="matrix(1,0,0,1,159,-30.7246)">
                <path d="M34.5,114C37.536,114 40,117.137 40,121C40,124.863 37.536,123 34.5,123C31.464,123 29,124.863 29,121C29,117.137 31.464,114 34.5,114Z" style="fill:rgb(29,188,24);stroke:black;stroke-width:0.33px;"/>
            </g>
        </g>
        <g transform="matrix(1,0,0,1,499.75,100.5)">
            <g transform="matrix(1,0,0,1,72.5,-107.725)">
                <path d="M34.5,114C37.536,114 40,117.137 40,121C40,124.863 37.536,123 34.5,123C31.464,123 29,124.863 29,121C29,117.137 31.464,114 34.5,114Z" style="fill:rgb(29,188,24);stroke:black;stroke-width:0.33px;"/>
            </g>
            <g transform="matrix(1,0,0,1,159,-107.725)">
                <path d="M34.5,114C37.536,114 40,117.137 40,121C40,124.863 37.536,123 34.5,123C31.464,123 29,124.863 29,121C29,117.137 31.464,114 34.5,114Z" style="fill:rgb(29,188,24);stroke:black;stroke-width:0.33px;"/>
            </g>
            <g transform="matrix(1,0,0,1,72.5,-30.7246)">
                <path d="M34.5,114C37.536,114 40,117.137 40,121C40,124.863 37.536,123 34.5,123C31.464,123 29,124.863 29,121C29,117.137 31.464,114 34.5,114Z" style="fill:rgb(29,188,24);stroke:black;stroke-width:0.33px;"/>
            </g>
            <g transform="matrix(1,0,0,1,159,-30.7246)">
                <path d="M34.5,114C37.536,114 40,117.137 40,121C40,124.863 37.536,123 34.5,123C31.464,123 29,124.863 29,121C29,117.137 31.464,114 34.5,114Z" style="fill:rgb(29,188,24);stroke:black;stroke-width:0.33px;"/>
            </g>
        </g>
        <g transform="matrix(1,0,0,1,499.75,300.5)">
            <g transform="matrix(1,0,0,1,72.5,-107.725)">
                <path d="M34.5,114C37.536,114 40,117.137 40,121C40,124.863 37.536,123 34.5,123C31.464,123 29,124.863 29,121C29,117.137 31.464,114 34.5,114Z" style="fill:rgb(29,188,24);stroke:black;stroke-width:0.33px;"/>
            </g>
            <g transform="matrix(1,0,0,1,159,-107.725)">
                <path d="M34.5,114C37.536,114 40,117.137 40,121C40,124.863 37.536,123 34.5,123C31.464,123 29,124.863 29,121C29,117.137 31.464,114 34.5,114Z" style="fill:rgb(29,188,24);stroke:black;stroke-width:0.33px;"/>
            </g>
            <g transform="matrix(1,0,0,1,72.5,-30.7246)">
                <path d="M34.5,114C37.536,114 40,117.137 40,121C40,124.863 37.536,123 34.5,123C31.464,123 29,124.863 29,121C29,117.137 31.464,114 34.5,114Z" style="fill:rgb(29,188,24);stroke:black;stroke-width:0.33px;"/>
            </g>
            <g transform="matrix(1,0,0,1,159,-30.7246)">
                <path d="M34.5,114C37.536,114 40,117.137 40,121C40,124.863 37.536,123 34.5,123C31.464,123 29,124.863 29,121C29,117.137 31.464,114 34.5,114Z" style="fill:rgb(29,188,24);stroke:black;stroke-width:0.33px;"/>
            </g>
        </g>
        <g transform="matrix(1,0,0,1,399.75,300.5)">
            <g transform="matrix(1,0,0,1,72.5,-107.725)">
                <path d="M34.5,114C37.536,114 40,117.137 40,121C40,124.863 37.536,123 34.5,123C31.464,123 29,124.863 29,121C29,117.137 31.464,114 34.5,114Z" style="fill:rgb(29,188,24);stroke:black;stroke-width:0.33px;"/>
            </g>
            <g transform="matrix(1,0,0,1,159,-107.725)">
                <path d="M34.5,114C37.536,114 40,117.137 40,121C40,124.863 37.536,123 34.5,123C31.464,123 29,124.863 29,121C29,117.137 31.464,114 34.5,114Z" style="fill:rgb(29,188,24);stroke:black;stroke-width:0.33px;"/>
            </g>
            <g transform="matrix(1,0,0,1,72.5,-30.7246)">
                <path d="M34.5,114C37.536,114 40,117.137 40,121C40,124.863 37.536,123 34.5,123C31.464,123 29,124.863 29,121C29,117.137 31.464,114 34.5,114Z" style="fill:rgb(29,188,24);stroke:black;stroke-width:0.33px;"/>
            </g>
            <g transform="matrix(1,0,0,1,159,-30.7246)">
                <path d="M34.5,114C37.536,114 40,117.137 40,121C40,124.863 37.536,123 34.5,123C31.464,123 29,124.863 29,121C29,117.137 31.464,114 34.5,114Z" style="fill:rgb(29,188,24);stroke:black;stroke-width:0.33px;"/>
            </g>
        </g>
        <g transform="matrix(1,0,0,1,299.75,300.5)">
            <g transform="matrix(1,0,0,1,72.5,-107.725)">
                <path d="M34.5,114C37.536,114 40,117.137 40,121C40,124.863 37.536,123 34.5,123C31.464,123 29,124.863 29,121C29,117.137 31.464,114 34.5,114Z" style="fill:rgb(29,188,24);stroke:black;stroke-width:0.33px;"/>
            </g>
            <g transform="matrix(1,0,0,1,159,-107.725)">
                <path d="M34.5,114C37.536,114 40,117.137 40,121C40,124.863 37.536,123 34.5,123C31.464,123 29,124.863 29,121C29,117.137 31.464,114 34.5,114Z" style="fill:rgb(29,188,24);stroke:black;stroke-width:0.33px;"/>
            </g>
            <g transform="matrix(1,0,0,1,72.5,-30.7246)">
                <path d="M34.5,114C37.536,114 40,117.137 40,121C40,124.863 37.536,123 34.5,123C31.464,123 29,124.863 29,121C29,117.137 31.464,114 34.5,114Z" style="fill:rgb(29,188,24);stroke:black;stroke-width:0.33px;"/>
            </g>
            <g transform="matrix(1,0,0,1,159,-30.7246)">
                <path d="M34.5,114C37.536,114 40,117.137 40,121C40,124.863 37.536,123 34.5,123C31.464,123 29,124.863 29,121C29,117.137 31.464,114 34.5,114Z" style="fill:rgb(29,188,24);stroke:black;stroke-width:0.33px;"/>
            </g>
        </g>
        <g transform="matrix(1,0,0,1,599.75,200.5)">
            <g transform="matrix(1,0,0,1,72.5,-107.725)">
                <path d="M34.5,114C37.536,114 40,117.137 40,121C40,124.863 37.536,123 34.5,123C31.464,123 29,124.863 29,121C29,117.137 31.464,114 34.5,114Z" style="fill:rgb(29,188,24);stroke:black;stroke-width:0.33px;"/>
            </g>
            <g transform="matrix(1,0,0,1,159,-107.725)">
                <path d="M34.5,114C37.536,114 40,117.137 40,121C40,124.863 37.536,123 34.5,123C31.464,123 29,124.863 29,121C29,117.137 31.464,114 34.5,114Z" style="fill:rgb(29,188,24);stroke:black;stroke-width:0.33px;"/>
            </g>
            <g transform="matrix(1,0,0,1,72.5,-30.7246)">
                <path d="M34.5,114C37.536,114 40,117.137 40,121C40,124.863 37.536,123 34.5,123C31.464,123 29,124.863 29,121C29,117.137 31.464,114 34.5,114Z" style="fill:rgb(29,188,24);stroke:black;stroke-width:0.33px;"/>
            </g>
            <g transform="matrix(1,0,0,1,159,-30.7246)">
                <path d="M34.5,114C37.536,114 40,117.137 40,121C40,124.863 37.536,123 34.5,123C31.464,123 29,124.863 29,121C29,117.137 31.464,114 34.5,114Z" style="fill:rgb(29,188,24);stroke:black;stroke-width:0.33px;"/>
            </g>
        </g>
        <g transform="matrix(1,0,0,1,199.75,400.5)">
            <g transform="matrix(1,0,0,1,72.5,-107.725)">
                <path d="M34.5,114C37.536,114 40,117.137 40,121C40,124.863 37.536,123 34.5,123C31.464,123 29,124.863 29,121C29,117.137 31.464,114 34.5,114Z" style="fill:rgb(29,188,24);stroke:black;stroke-width:0.33px;"/>
            </g>
            <g transform="matrix(1,0,0,1,159,-107.725)">
                <path d="M34.5,114C37.536,114 40,117.137 40,121C40,124.863 37.536,123 34.5,123C31.464,123 29,124.863 29,121C29,117.137 31.464,114 34.5,114Z" style="fill:rgb(29,188,24);stroke:black;stroke-width:0.33px;"/>
            </g>
            <g transform="matrix(1,0,0,1,72.5,-30.7246)">
                <path d="M34.5,114C37.536,114 40,117.137 40,121C40,124.863 37.536,123 34.5,123C31.464,123 29,124.863 29,121C29,117.137 31.464,114 34.5,114Z" style="fill:rgb(29,188,24);stroke:black;stroke-width:0.33px;"/>
            </g>
            <g transform="matrix(1,0,0,1,159,-30.7246)">
                <path d="M34.5,114C37.536,114 40,117.137 40,121C40,124.863 37.536,123 34.5,123C31.464,123 29,124.863 29,121C29,117.137 31.464,114 34.5,114Z" style="fill:rgb(29,188,24);stroke:black;stroke-width:0.33px;"/>
            </g>
        </g>
        <g transform="matrix(1,0,0,1,199.75,500.5)">
            <g transform="matrix(1,0,0,1,72.5,-107.725)">
                <path d="M34.5,114C37.536,114 40,117.137 40,121C40,124.863 37.536,123 34.5,123C31.464,123 29,124.863 29,121C29,117.137 31.464,114 34.5,114Z" style="fill:rgb(29,188,24);stroke:black;stroke-width:0.33px;"/>
            </g>
            <g transform="matrix(1,0,0,1,159,-107.725)">
                <path d="M34.5,114C37.536,114 40,117.137 40,121C40,124.863 37.536,123 34.5,123C31.464,123 29,124.863 29,121C29,117.137 31.464,114 34.5,114Z" style="fill:rgb(29,188,24);stroke:black;stroke-width:0.33px;"/>
            </g>
            <g transform="matrix(1,0,0,1,72.5,-30.7246)">
                <path d="M34.5,114C37.536,114 40,117.137 40,121C40,124.863 37.536,123 34.5,123C31.464,123 29,124.863 29,121C29,117.137 31.464,114 34.5,114Z" style="fill:rgb(29,188,24);stroke:black;stroke-width:0.33px;"/>
            </g>
            <g transform="matrix(1,0,0,1,159,-30.7246)">
                <path d="M34.5,114C37.536,114 40,117.137 40,121C40,124.863 37.536,123 34.5,123C31.464,123 29,124.863 29,121C29,117.137 31.464,114 34.5,114Z" style="fill:rgb(29,188,24);stroke:black;stroke-width:0.33px;"/>
            </g>
        </g>
        <g transform="matrix(1,0,0,1,299.75,600.5)">
            <g transform="matrix(1,0,0,1,72.5,-107.725)">
                <path d="M34.5,114C37.536,114 40,117.137 40,121C40,124.863 37.536,123 34.5,123C31.464,123 29,124.863 29,121C29,117.137 31.464,114 34.5,114Z" style="fill:rgb(29,188,24);stroke:black;stroke-width:0.33px;"/>
            </g>
            <g transform="matrix(1,0,0,1,159,-107.725)">
                <path d="M34.5,114C37.536,114 40,117.137 40,121C40,124.863 37.536,123 34.5,123C31.464,123 29,124.863 29,121C29,117.137 31.464,114 34.5,114Z" style="fill:rgb(29,188,24);stroke:black;stroke-width:0.33px;"/>
            </g>
            <g transform="matrix(1,0,0,1,72.5,-30.7246)">
                <path d="M34.5,114C37.536,114 40,117.137 40,121C40,124.863 37.536,123 34.5,123C31.464,123 29,124.863 29,121C29,117.137 31.464,114 34.5,114Z" style="fill:rgb(29,188,24);stroke:black;stroke-width:0.33px;"/>
            </g>
            <g transform="matrix(1,0,0,1,159,-30.7246)">
                <path d="M34.5,114C37.536,114 40,117.137 40,121C40,124.863 37.536,123 34.5,123C31.464,123 29,124.863 29,121C29,117.137 31.464,114 34.5,114Z" style="fill:rgb(29,188,24);stroke:black;stroke-width:0.33px;"/>
            </g>
        </g>
        <g transform="matrix(1,0,0,1,499.75,500.5)">
            <g transform="matrix(1,0,0,1,72.5,-107.725)">
                <path d="M34.5,114C37.536,114 40,117.137 40,121C40,124.863 37.536,123 34.5,123C31.464,123 29,124.863 29,121C29,117.137 31.464,114 34.5,114Z" style="fill:rgb(201,8,5);stroke:black;stroke-width:0.33px;"/>
            </g>
            <g transform="matrix(1,0,0,1,159,-107.725)">
                <path d="M34.5,114C37.536,114 40,117.137 40,121C40,124.863 37.536,123 34.5,123C31.464,123 29,124.863 29,121C29,117.137 31.464,114 34.5,114Z" style="fill:rgb(201,8,5);stroke:black;stroke-width:0.33px;"/>
            </g>
            <g transform="matrix(1,0,0,1,72.5,-30.7246)">
                <path d="M34.5,114C37.536,114 40,117.137 40,121C40,124.863 37.536,123 34.5,123C31.464,123 29,124.863 29,121C29,117.137 31.464,114 34.5,114Z" style="fill:rgb(201,8,5);stroke:black;stroke-width:0.33px;"/>
            </g>
            <g transform="matrix(1,0,0,1,159,-30.7246)">
                <path d="M34.5,114C37.536,114 40,117.137 40,121C40,124.863 37.536,123 34.5,123C31.464,123 29,124.863 29,121C29,117.137 31.464,114 34.5,114Z" style="fill:rgb(201,8,5);stroke:black;stroke-width:0.33px;"/>
            </g>
        </g>
        <g transform="matrix(1,0,0,1,599.75,500.5)">
            <g transform="matrix(1,0,0,1,72.5,-107.725)">
                <path d="M34.5,114C37.536,114 40,117.137 40,121C40,124.863 37.536,123 34.5,123C31.464,123 29,124.863 29,121C29,117.137 31.464,114 34.5,114Z" style="fill:rgb(201,8,5);stroke:black;stroke-width:0.33px;"/>
            </g>
            <g transform="matrix(1,0,0,1,159,-107.725)">
                <path d="M34.5,114C37.536,114 40,117.137 40,121C40,124.863 37.536,123 34.5,123C31.464,123 29,124.863 29,121C29,117.137 31.464,114 34.5,114Z" style="fill:rgb(201,8,5);stroke:black;stroke-width:0.33px;"/>
            </g>
            <g transform="matrix(1,0,0,1,72.5,-30.7246)">
                <path d="M34.5,114C37.536,114 40,117.137 40,121C40,124.863 37.536,123 34.5,123C31.464,123 29,124.863 29,121C29,117.137 31.464,114 34.5,114Z" style="fill:rgb(201,8,5);stroke:black;stroke-width:0.33px;"/>
            </g>
            <g transform="matrix(1,0,0,1,159,-30.7246)">
                <path d="M34.5,114C37.536,114 40,117.137 40,121C40,124.863 37.536,123 34.5,123C31.464,123 29,124.863 29,121C29,117.137 31.464,114 34.5,114Z" style="fill:rgb(201,8,5);stroke:black;stroke-width:0.33px;"/>
            </g>
        </g>
        <g transform="matrix(1,0,0,1,699.75,500.5)">
            <g transform="matrix(1,0,0,1,72.5,-107.725)">
                <path d="M34.5,114C37.536,114 40,117.137 40,121C40,124.863 37.536,123 34.5,123C31.464,123 29,124.863 29,121C29,117.137 31.464,114 34.5,114Z" style="fill:rgb(201,8,5);stroke:black;stroke-width:0.33px;"/>
            </g>
            <g transform="matrix(1,0,0,1,159,-107.725)">
                <path d="M34.5,114C37.536,114 40,117.137 40,121C40,124.863 37.536,123 34.5,123C31.464,123 29,124.863 29,121C29,117.137 31.464,114 34.5,114Z" style="fill:rgb(201,8,5);stroke:black;stroke-width:0.33px;"/>
            </g>
            <g transform="matrix(1,0,0,1,72.5,-30.7246)">
                <path d="M34.5,114C37.536,114 40,117.137 40,121C40,124.863 37.536,123 34.5,123C31.464,123 29,124.863 29,121C29,117.137 31.464,114 34.5,114Z" style="fill:rgb(201,8,5);stroke:black;stroke-width:0.33px;"/>
            </g>
            <g transform="matrix(1,0,0,1,159,-30.7246)">
                <path d="M34.5,114C37.536,114 40,117.137 40,121C40,124.863 37.536,123 34.5,123C31.464,123 29,124.863 29,121C29,117.137 31.464,114 34.5,114Z" style="fill:rgb(201,8,5);stroke:black;stroke-width:0.33px;"/>
            </g>
        </g>
        <g transform="matrix(1,0,0,1,799.75,501)">
            <g transform="matrix(1,0,0,1,72.5,-107.725)">
                <path d="M34.5,114C37.536,114 40,117.137 40,121C40,124.863 37.536,123 34.5,123C31.464,123 29,124.863 29,121C29,117.137 31.464,114 34.5,114Z" style="fill:rgb(201,8,5);stroke:black;stroke-width:0.33px;"/>
            </g>
            <g transform="matrix(1,0,0,1,159,-107.725)">
                <path d="M34.5,114C37.536,114 40,117.137 40,121C40,124.863 37.536,123 34.5,123C31.464,123 29,124.863 29,121C29,117.137 31.464,114 34.5,114Z" style="fill:rgb(201,8,5);stroke:black;stroke-width:0.33px;"/>
            </g>
            <g transform="matrix(1,0,0,1,72.5,-30.7246)">
                <path d="M34.5,114C37.536,114 40,117.137 40,121C40,124.863 37.536,123 34.5,123C31.464,123 29,124.863 29,121C29,117.137 31.464,114 34.5,114Z" style="fill:rgb(201,8,5);stroke:black;stroke-width:0.33px;"/>
            </g>
            <g transform="matrix(1,0,0,1,159,-30.7246)">
                <path d="M34.5,114C37.536,114 40,117.137 40,121C40,124.863 37.536,123 34.5,123C31.464,123 29,124.863 29,121C29,117.137 31.464,114 34.5,114Z" style="fill:rgb(201,8,5);stroke:black;stroke-width:0.33px;"/>
            </g>
        </g>
        <g transform="matrix(1,0,0,1,-0.785903,-2.3164)">
            <g transform="matrix(1,0,0,1,159.286,-7.40821)">
                <path d="M34.5,114C37.536,114 40,117.137 40,121C40,124.863 37.536,123 34.5,123C31.464,123 29,124.863 29,121C29,117.137 31.464,114 34.5,114Z" style="fill:rgb(241,241,84);stroke:black;stroke-width:0.33px;"/>
            </g>
            <g transform="matrix(1,0,0,1,73.2859,74.5918)">
                <path d="M34.5,114C37.536,114 40,117.137 40,121C40,124.863 37.536,123 34.5,123C31.464,123 29,124.863 29,121C29,117.137 31.464,114 34.5,114Z" style="fill:rgb(241,241,84);stroke:black;stroke-width:0.33px;"/>
            </g>
        </g>
        <g transform="matrix(1,0,0,1,599.214,-2.3164)">
            <g transform="matrix(1,0,0,1,159.286,-7.40821)">
                <path d="M34.5,114C37.536,114 40,117.137 40,121C40,124.863 37.536,123 34.5,123C31.464,123 29,124.863 29,121C29,117.137 31.464,114 34.5,114Z" style="fill:rgb(241,241,84);stroke:black;stroke-width:0.33px;"/>
            </g>
            <g transform="matrix(1,0,0,1,73.2859,74.5918)">
                <path d="M34.5,114C37.536,114 40,117.137 40,121C40,124.863 37.536,123 34.5,123C31.464,123 29,124.863 29,121C29,117.137 31.464,114 34.5,114Z" style="fill:rgb(241,241,84);stroke:black;stroke-width:0.33px;"/>
            </g>
        </g>
        <g transform="matrix(-1,0,0,1,900.786,197.684)">
            <g transform="matrix(1,0,0,1,159.286,-7.40821)">
                <path d="M34.5,114C37.536,114 40,117.137 40,121C40,124.863 37.536,123 34.5,123C31.464,123 29,124.863 29,121C29,117.137 31.464,114 34.5,114Z" style="fill:rgb(241,241,84);stroke:black;stroke-width:0.33px;"/>
            </g>
            <g transform="matrix(1,0,0,1,73.2859,74.5918)">
                <path d="M34.5,114C37.536,114 40,117.137 40,121C40,124.863 37.536,123 34.5,123C31.464,123 29,124.863 29,121C29,117.137 31.464,114 34.5,114Z" style="fill:rgb(241,241,84);stroke:black;stroke-width:0.33px;"/>
            </g>
        </g>
        <g transform="matrix(-1,0,0,1,500.786,197.684)">
            <g transform="matrix(1,0,0,1,159.286,-7.40821)">
                <path d="M34.5,114C37.536,114 40,117.137 40,121C40,124.863 37.536,123 34.5,123C31.464,123 29,124.863 29,121C29,117.137 31.464,114 34.5,114Z" style="fill:rgb(241,241,84);stroke:black;stroke-width:0.33px;"/>
            </g>
            <g transform="matrix(1,0,0,1,73.2859,74.5918)">
                <path d="M34.5,114C37.536,114 40,117.137 40,121C40,124.863 37.536,123 34.5,123C31.464,123 29,124.863 29,121C29,117.137 31.464,114 34.5,114Z" style="fill:rgb(241,241,84);stroke:black;stroke-width:0.33px;"/>
            </g>
        </g>
        <g transform="matrix(1,0,0,1,199.214,497.684)">
            <g transform="matrix(1,0,0,1,159.286,-7.40821)">
                <path d="M34.5,114C37.536,114 40,117.137 40,121C40,124.863 37.536,123 34.5,123C31.464,123 29,124.863 29,121C29,117.137 31.464,114 34.5,114Z" style="fill:rgb(241,241,84);stroke:black;stroke-width:0.33px;"/>
            </g>
            <g transform="matrix(1,0,0,1,73.2859,74.5918)">
                <path d="M34.5,114C37.536,114 40,117.137 40,121C40,124.863 37.536,123 34.5,123C31.464,123 29,124.863 29,121C29,117.137 31.464,114 34.5,114Z" style="fill:rgb(241,241,84);stroke:black;stroke-width:0.33px;"/>
            </g>
        </g>
        <g transform="matrix(-1,0,0,1,700.786,497.684)">
            <g transform="matrix(1,0,0,1,159.286,-7.40821)">
                <path d="M34.5,114C37.536,114 40,117.137 40,121C40,124.863 37.536,123 34.5,123C31.464,123 29,124.863 29,121C29,117.137 31.464,114 34.5,114Z" style="fill:rgb(241,241,84);stroke:black;stroke-width:0.33px;"/>
            </g>
            <g transform="matrix(1,0,0,1,73.2859,74.5918)">
                <path d="M34.5,114C37.536,114 40,117.137 40,121C40,124.863 37.536,123 34.5,123C31.464,123 29,124.863 29,121C29,117.137 31.464,114 34.5,114Z" style="fill:rgb(241,241,84);stroke:black;stroke-width:0.33px;"/>
            </g>
        </g>
        <g transform="matrix(-1,0,0,1,700.786,397.684)">
            <g transform="matrix(1,0,0,1,159.286,-7.40821)">
                <path d="M34.5,114C37.536,114 40,117.137 40,121C40,124.863 37.536,123 34.5,123C31.464,123 29,124.863 29,121C29,117.137 31.464,114 34.5,114Z" style="fill:rgb(241,241,84);stroke:black;stroke-width:0.33px;"/>
            </g>
            <g transform="matrix(1,0,0,1,73.2859,74.5918)">
                <path d="M34.5,114C37.536,114 40,117.137 40,121C40,124.863 37.536,123 34.5,123C31.464,123 29,124.863 29,121C29,117.137 31.464,114 34.5,114Z" style="fill:rgb(241,241,84);stroke:black;stroke-width:0.33px;"/>
            </g>
        </g>
    </g>
    <g transform="matrix(1,0,0,1,2.92885,-3.81857)">
        <path d="M77,15C80.322,17.968 90.656,31.999 87.123,41.938C84.375,49.669 67.708,52.95 68.472,59.355C70.33,74.941 89.836,80.758 87,86C85.615,88.559 74.338,98.94 66.771,96.906C60.458,95.209 58.247,81.224 52.23,81.137C36.811,80.915 21.723,96.216 16,93C10.098,89.684 18.886,81.712 22.888,71.809C25.964,64.198 19.167,62.627 18.194,58.15C17.734,56.032 8.152,50.054 7.5,48.203C3.439,36.681 10.671,26.036 13.853,20.638C19.133,11.681 66.962,6.031 77,15Z" style="fill:rgb(142,136,136);"/>
    </g>
    <g transform="matrix(6.12323e-17,1,-1,6.12323e-17,103.819,102.929)">
        <path d="M77,15C80.322,17.968 90.656,31.999 87.123,41.938C84.375,49.669 67.708,52.95 68.472,59.355C70.33,74.941 89.836,80.758 87,86C85.615,88.559 74.338,98.94 66.771,96.906C60.458,95.209 58.247,81.224 52.23,81.137C36.811,80.915 21.723,96.216 16,93C10.098,89.684 18.886,81.712 22.888,71.809C25.964,64.198 19.167,62.627 18.194,58.15C17.734,56.032 8.152,50.054 7.5,48.203C3.439,36.681 10.671,26.036 13.853,20.638C19.133,11.681 66.962,6.031 77,15Z" style="fill:rgb(142,136,136);"/>
    </g>
    <g transform="matrix(1,0,0,1,302.929,196.181)">
        <path d="M77,15C80.322,17.968 90.656,31.999 87.123,41.938C84.375,49.669 67.708,52.95 68.472,59.355C70.33,74.941 89.836,80.758 87,86C85.615,88.559 74.338,98.94 66.771,96.906C60.458,95.209 58.247,81.224 52.23,81.137C36.811,80.915 21.723,96.216 16,93C10.098,89.684 18.886,81.712 22.888,71.809C25.964,64.198 19.167,62.627 18.194,58.15C17.734,56.032 8.152,50.054 7.5,48.203C3.439,36.681 10.671,26.036 13.853,20.638C19.133,11.681 66.962,6.031 77,15Z" style="fill:rgb(142,136,136);"/>
    </g>
    <g transform="matrix(6.12323e-17,1,-1,6.12323e-17,903.819,302.929)">
        <path d="M77,15C80.322,17.968 90.656,31.999 87.123,41.938C84.375,49.669 67.708,52.95 68.472,59.355C70.33,74.941 89.836,80.758 87,86C85.615,88.559 74.338,98.94 66.771,96.906C60.458,95.209 58.247,81.224 52.23,81.137C36.811,80.915 21.723,96.216 16,93C10.098,89.684 18.886,81.712 22.888,71.809C25.964,64.198 19.167,62.627 18.194,58.15C17.734,56.032 8.152,50.054 7.5,48.203C3.439,36.681 10.671,26.036 13.853,20.638C19.133,11.681 66.962,6.031 77,15Z" style="fill:rgb(142,136,136);"/>
    </g>
    <g transform="matrix(6.12323e-17,-1,1,6.12323e-17,196.181,697.071)">
        <path d="M77,15C80.322,17.968 90.656,31.999 87.123,41.938C84.375,49.669 67.708,52.95 68.472,59.355C70.33,74.941 89.836,80.758 87,86C85.615,88.559 74.338,98.94 66.771,96.906C60.458,95.209 58.247,81.224 52.23,81.137C36.811,80.915 21.723,96.216 16,93C10.098,89.684 18.886,81.712 22.888,71.809C25.964,64.198 19.167,62.627 18.194,58.15C17.734,56.032 8.152,50.054 7.5,48.203C3.439,36.681 10.671,26.036 13.853,20.638C19.133,11.681 66.962,6.031 77,15Z" style="fill:rgb(142,136,136);"/>
    </g>
    <g transform="matrix(-1,-1.22465e-16,1.22465e-16,-1,697.071,703.819)">
        <path d="M77,15C80.322,17.968 90.656,31.999 87.123,41.938C84.375,49.669 67.708,52.95 68.472,59.355C70.33,74.941 89.836,80.758 87,86C85.615,88.559 74.338,98.94 66.771,96.906C60.458,95.209 58.247,81.224 52.23,81.137C36.811,80.915 21.723,96.216 16,93C10.098,89.684 18.886,81.712 22.888,71.809C25.964,64.198 19.167,62.627 18.194,58.15C17.734,56.032 8.152,50.054 7.5,48.203C3.439,36.681 10.671,26.036 13.853,20.638C19.133,11.681 66.962,6.031 77,15Z" style="fill:rgb(142,136,136);"/>
    </g>
</svg>
